<svg xmlns="http://www.w3.org/2000/svg" viewBox="0 0 256 256">
  <defs>
    <linearGradient id="g1" x1="0" y1="0" x2="1" y2="1">
      <stop offset="0%" stop-color="#34d399"/>
      <stop offset="100%" stop-color="#0f766e"/>
    </linearGradient>
  </defs>
  <rect width="256" height="256" rx="72" fill="url(#g1)"/>
  <circle cx="128" cy="128" r="88" fill="#ffffff" opacity="0.08"/>
  <rect x="62" y="58" width="104" height="126" rx="28" fill="#ecfeff"/>
  <rect x="88" y="46" width="52" height="20" rx="10" fill="#99f6e4"/>
  <rect x="84" y="92" width="58" height="10" rx="5" fill="#a7f3d0"/>
  <rect x="84" y="114" width="46" height="10" rx="5" fill="#a7f3d0"/>
  <rect x="84" y="136" width="54" height="10" rx="5" fill="#a7f3d0"/>
  <path d="M84 170c4-12 13-18 26-18h22c13 0 22 6 26 18" fill="#0f766e"/>
  <rect x="76" y="167" width="90" height="24" rx="12" fill="#115e59"/>
  <circle cx="98" cy="192" r="11" fill="#1f2937"/>
  <circle cx="144" cy="192" r="11" fill="#1f2937"/>
  <circle cx="183" cy="82" r="30" fill="#ffffff"/>
  <circle cx="183" cy="82" r="24" fill="#dcfce7"/>
  <path d="M173 82l7 7 14-16" fill="none" stroke="#059669" stroke-width="8" stroke-linecap="round" stroke-linejoin="round"/>
</svg>
