<svg xmlns="http://www.w3.org/2000/svg" viewBox="0 0 256 256">
  <defs>
    <linearGradient id="bg1" x1="0" y1="0" x2="1" y2="1">
      <stop offset="0%" stop-color="#0ea5e9"/>
      <stop offset="100%" stop-color="#1d4ed8"/>
    </linearGradient>
  </defs>
  <rect width="256" height="256" rx="56" fill="url(#bg1)"/>
  <circle cx="128" cy="128" r="86" fill="#ffffff" opacity="0.12"/>
  <path d="M74 143l12-33c4-11 14-18 26-18h32c12 0 22 7 26 18l12 33" fill="#fff"/>
  <rect x="65" y="137" width="126" height="34" rx="16" fill="#ffffff"/>
  <circle cx="95" cy="174" r="14" fill="#082f49"/>
  <circle cx="161" cy="174" r="14" fill="#082f49"/>
  <path d="M104 92h66c10 0 18 8 18 18v2H86v-2c0-10 8-18 18-18z" fill="#e0f2fe"/>
  <circle cx="181" cy="84" r="31" fill="#22c55e"/>
  <path d="M168 84l9 9 18-20" fill="none" stroke="#fff" stroke-width="10" stroke-linecap="round" stroke-linejoin="round"/>
</svg>
